<svg width="128" height="128" viewBox="0 0 128 128" fill="none" xmlns="http://www.w3.org/2000/svg">
<rect width="128" height="128" fill="white"/>
<path d="M62.9883 84.56C61.8363 86.624 60.1803 88.568 58.0203 90.392C55.9083 92.168 53.4363 93.608 50.6043 94.712C47.8203 95.768 44.8203 96.296 41.6043 96.296C36.3723 96.296 31.7883 95.12 27.8523 92.768C23.9163 90.368 20.8443 86.96 18.6363 82.544C16.4283 78.08 15.3243 72.8 15.3243 66.704C15.3243 60.848 16.4283 55.736 18.6363 51.368C20.8443 46.952 23.9163 43.544 27.8523 41.144C31.7883 38.696 36.3483 37.472 41.5323 37.472C46.0443 37.472 50.0523 38.216 53.5563 39.704C57.0603 41.192 59.6283 43.04 61.2603 45.248L59.2443 58.28H54.4923C53.7243 53.144 52.3803 49.736 50.4603 48.056C49.3083 47.048 47.9883 46.328 46.5003 45.896C45.0603 45.416 43.2363 45.176 41.0283 45.176C38.1003 45.176 35.4363 45.968 33.0363 47.552C30.6843 49.088 28.8123 51.464 27.4203 54.68C26.0283 57.848 25.3323 61.856 25.3323 66.704C25.3323 71.12 26.1003 74.936 27.6363 78.152C29.1723 81.32 31.2363 83.768 33.8283 85.496C36.4203 87.176 39.3003 88.016 42.4683 88.016C44.7243 88.016 46.8843 87.632 48.9483 86.864C51.0123 86.048 52.8843 85.016 54.5643 83.768C56.2923 82.472 57.7083 81.104 58.8123 79.664L62.9883 84.56ZM109.033 95.936C102.889 91.52 97.4655 86.696 92.7615 81.464C88.1055 76.232 84.2175 70.712 81.0975 64.904L89.5935 60.44C89.9295 61.064 90.2415 61.64 90.5295 62.168C90.8175 62.648 91.1775 63.2 91.6095 63.824C93.0975 63.584 94.4895 63.128 95.7855 62.456C97.1295 61.784 98.2095 60.8 99.0255 59.504C99.8895 58.16 100.321 56.432 100.321 54.32C100.321 51.632 99.5055 49.52 97.8735 47.984C96.2415 46.448 94.0335 45.68 91.2495 45.68C89.5695 45.68 87.7935 45.704 85.9215 45.752C84.0975 45.8 82.3455 45.896 80.6655 46.04L80.5935 95L71.7375 95.936L70.5135 46.832L66.9855 47.336L65.5455 41C66.8895 40.712 68.6415 40.424 70.8015 40.136C72.9615 39.8 75.3135 39.488 77.8575 39.2C80.4015 38.864 82.8975 38.6 85.3455 38.408C87.8415 38.216 90.0735 38.12 92.0415 38.12C97.6095 38.12 102.025 39.512 105.289 42.296C108.553 45.08 110.185 49.088 110.185 54.32C110.185 57.44 109.441 60.056 107.953 62.168C106.465 64.28 104.521 65.936 102.121 67.136C99.7695 68.288 97.2495 69.008 94.5615 69.296C99.0735 76.256 105.625 83.576 114.217 91.256L109.033 95.936Z" fill="black"/>
<path d="M62.9883 84.56L63.8615 85.0474L64.2005 84.4401L63.7492 83.911L62.9883 84.56ZM58.0203 90.392L58.6639 91.1574L58.6655 91.156L58.0203 90.392ZM50.6043 94.712L50.959 95.647L50.9676 95.6437L50.6043 94.712ZM27.8523 92.768L27.3317 93.6218L27.3394 93.6264L27.8523 92.768ZM18.6363 82.544L17.74 82.9874L17.7419 82.9912L18.6363 82.544ZM18.6363 51.368L19.5288 51.8191L19.5308 51.8152L18.6363 51.368ZM27.8523 41.144L28.373 41.9978L28.3805 41.9932L27.8523 41.144ZM53.5563 39.704L53.1655 40.6244L53.5563 39.704ZM61.2603 45.248L62.2486 45.4009L62.3123 44.9889L62.0645 44.6536L61.2603 45.248ZM59.2443 58.28V59.28H60.1015L60.2326 58.4329L59.2443 58.28ZM54.4923 58.28L53.5033 58.4279L53.6308 59.28H54.4923V58.28ZM50.4603 48.056L49.8018 48.8086L50.4603 48.056ZM46.5003 45.896L46.1841 46.8447L46.2027 46.8509L46.2215 46.8563L46.5003 45.896ZM33.0363 47.552L33.5831 48.3893L33.5872 48.3866L33.0363 47.552ZM27.4203 54.68L28.3359 55.0823L28.3381 55.0772L27.4203 54.68ZM27.6363 78.152L26.734 78.583L26.7365 78.5883L27.6363 78.152ZM33.8283 85.496L33.2736 86.3281L33.2845 86.3352L33.8283 85.496ZM48.9483 86.864L49.2971 87.8012L49.3066 87.7977L49.316 87.794L48.9483 86.864ZM54.5643 83.768L55.1607 84.5708L55.1643 84.568L54.5643 83.768ZM58.8123 79.664L59.5732 79.0151L58.7709 78.0745L58.0187 79.0556L58.8123 79.664ZM62.1152 84.0726C61.0321 86.013 59.4607 87.8668 57.3752 89.628L58.6655 91.156C60.9 89.2691 62.6406 87.235 63.8615 85.0474L62.1152 84.0726ZM57.3767 89.6266C55.3565 91.3255 52.9815 92.712 50.2411 93.7803L50.9676 95.6437C53.8912 94.504 56.4602 93.0106 58.6639 91.1574L57.3767 89.6266ZM50.2497 93.777C47.5878 94.7867 44.7089 95.296 41.6043 95.296V97.296C44.9318 97.296 48.0529 96.7493 50.959 95.647L50.2497 93.777ZM41.6043 95.296C36.527 95.296 32.1254 94.1564 28.3653 91.9096L27.3394 93.6264C31.4513 96.0835 36.2177 97.296 41.6043 97.296V95.296ZM28.373 91.9142C24.6087 89.6189 21.661 86.3573 19.5308 82.0968L17.7419 82.9912C20.0277 87.5627 23.224 91.1171 27.3317 93.6218L28.373 91.9142ZM19.5327 82.1006C17.4064 77.8019 16.3243 72.6801 16.3243 66.704H14.3243C14.3243 72.9199 15.4502 78.3581 17.74 82.9874L19.5327 82.1006ZM16.3243 66.704C16.3243 60.9742 17.4041 56.0223 19.5288 51.8191L17.7439 50.9169C15.4526 55.4496 14.3243 60.7218 14.3243 66.704H16.3243ZM19.5308 51.8152C21.661 47.5547 24.6087 44.2931 28.373 41.9978L27.3317 40.2902C23.224 42.7949 20.0277 46.3493 17.7419 50.9208L19.5308 51.8152ZM28.3805 41.9932C32.1397 39.6551 36.5123 38.472 41.5323 38.472V36.472C36.1844 36.472 31.437 37.7369 27.3242 40.2948L28.3805 41.9932ZM41.5323 38.472C45.9345 38.472 49.8058 39.1977 53.1655 40.6244L53.9472 38.7836C50.2989 37.2343 46.1542 36.472 41.5323 36.472V38.472ZM53.1655 40.6244C56.5658 42.0684 58.9637 43.8231 60.4562 45.8424L62.0645 44.6536C60.293 42.2569 57.5549 40.3156 53.9472 38.7836L53.1655 40.6244ZM60.2721 45.0951L58.2561 58.1271L60.2326 58.4329L62.2486 45.4009L60.2721 45.0951ZM59.2443 57.28H54.4923V59.28H59.2443V57.28ZM55.4813 58.1321C54.7088 52.9659 53.3274 49.2359 51.1189 47.3034L49.8018 48.8086C51.4333 50.2361 52.7399 53.3221 53.5033 58.4279L55.4813 58.1321ZM51.1189 47.3034C49.8556 46.1981 48.4056 45.4078 46.7792 44.9356L46.2215 46.8563C47.5711 47.2481 48.7611 47.8979 49.8018 48.8086L51.1189 47.3034ZM46.8166 44.9473C45.2397 44.4217 43.2995 44.176 41.0283 44.176V46.176C43.1732 46.176 44.881 46.4103 46.1841 46.8447L46.8166 44.9473ZM41.0283 44.176C37.9083 44.176 35.0521 45.0234 32.4855 46.7174L33.5872 48.3866C35.8206 46.9126 38.2924 46.176 41.0283 46.176V44.176ZM32.4896 46.7147C29.937 48.3817 27.9532 50.9315 26.5026 54.2828L28.3381 55.0772C29.6715 51.9965 31.4317 49.7943 33.5831 48.3893L32.4896 46.7147ZM26.5048 54.2777C25.0395 57.6126 24.3323 61.7692 24.3323 66.704H26.3323C26.3323 61.9427 27.0172 58.0834 28.3359 55.0823L26.5048 54.2777ZM24.3323 66.704C24.3323 71.2343 25.1202 75.2042 26.734 78.583L28.5387 77.721C27.0805 74.6678 26.3323 71.0057 26.3323 66.704H24.3323ZM26.7365 78.5883C28.3399 81.8953 30.5149 84.4889 33.2736 86.328L34.383 84.6639C31.9578 83.0471 30.0048 80.7447 28.5362 77.7157L26.7365 78.5883ZM33.2845 86.3352C36.0428 88.1229 39.1126 89.016 42.4683 89.016V87.016C39.4881 87.016 36.7979 86.229 34.3722 84.6568L33.2845 86.3352ZM42.4683 89.016C44.8404 89.016 47.1188 88.6118 49.2971 87.8012L48.5996 85.9268C46.6499 86.6522 44.6082 87.016 42.4683 87.016V89.016ZM49.316 87.794C51.4566 86.9477 53.4062 85.874 55.1607 84.5707L53.968 82.9653C52.3625 84.158 50.5681 85.1483 48.5807 85.934L49.316 87.794ZM55.1643 84.568C56.9519 83.2273 58.4371 81.797 59.606 80.2724L58.0187 79.0556C56.9796 80.411 55.6328 81.7167 53.9643 82.968L55.1643 84.568ZM58.0515 80.3129L62.2275 85.2089L63.7492 83.911L59.5732 79.0151L58.0515 80.3129ZM109.033 95.936L108.45 96.748L109.105 97.2188L109.704 96.6783L109.033 95.936ZM92.7615 81.464L92.0144 82.1288L92.0178 82.1326L92.7615 81.464ZM81.0975 64.904L80.6323 64.0188L79.7389 64.4882L80.2165 65.3772L81.0975 64.904ZM89.5935 60.44L90.4739 59.9659L90.0046 59.0943L89.1283 59.5548L89.5935 60.44ZM90.5295 62.168L89.6516 62.6469L89.6614 62.6649L89.672 62.6825L90.5295 62.168ZM91.6095 63.824L90.7873 64.3932L91.1462 64.9116L91.7687 64.8112L91.6095 63.824ZM95.7855 62.456L95.3383 61.5616L95.3317 61.5649L95.3252 61.5682L95.7855 62.456ZM99.0255 59.504L98.1843 58.9632L98.1792 58.9712L99.0255 59.504ZM97.8735 47.984L97.1881 48.7122L97.8735 47.984ZM85.9215 45.752L85.8958 44.7523L85.8952 44.7523L85.9215 45.752ZM80.6655 46.04L80.5801 45.0437L79.6668 45.1219L79.6655 46.0385L80.6655 46.04ZM80.5935 95L80.6986 95.9945L81.5921 95.9L81.5935 95.0015L80.5935 95ZM71.7375 95.936L70.7378 95.9609L70.7648 97.0444L71.8426 96.9305L71.7375 95.936ZM70.5135 46.832L71.5132 46.8071L71.4851 45.683L70.372 45.842L70.5135 46.832ZM66.9855 47.336L66.0103 47.5576L66.2146 48.4563L67.1269 48.3259L66.9855 47.336ZM65.5455 41L65.3359 40.0222L64.346 40.2343L64.5703 41.2216L65.5455 41ZM70.8015 40.136L70.9336 41.1272L70.9444 41.1258L70.9552 41.1241L70.8015 40.136ZM77.8575 39.2L77.97 40.1936L77.9792 40.1926L77.9884 40.1914L77.8575 39.2ZM85.3455 38.408L85.2688 37.4109L85.2673 37.4111L85.3455 38.408ZM105.289 42.296L105.938 41.5352L105.289 42.296ZM107.953 62.168L107.136 61.592L107.953 62.168ZM102.121 67.136L102.561 68.0341L102.569 68.0304L102.121 67.136ZM94.5615 69.296L94.4549 68.3017L92.8375 68.475L93.7224 69.84L94.5615 69.296ZM114.217 91.256L114.888 91.9983L115.714 91.2523L114.884 90.5104L114.217 91.256ZM109.617 95.124C103.527 90.7468 98.1576 85.9701 93.5051 80.7954L92.0178 82.1326C96.7733 87.4219 102.252 92.2932 108.45 96.748L109.617 95.124ZM93.5085 80.7992C88.9013 75.622 85.0592 70.1658 81.9784 64.4308L80.2165 65.3772C83.3757 71.2582 87.3097 76.842 92.0144 82.1288L93.5085 80.7992ZM81.5626 65.7892L90.0586 61.3252L89.1283 59.5548L80.6323 64.0188L81.5626 65.7892ZM88.713 60.9141C89.0497 61.5394 89.3626 62.117 89.6516 62.6469L91.4074 61.6891C91.1204 61.163 90.8092 60.5886 90.4739 59.9659L88.713 60.9141ZM89.672 62.6825C89.9743 63.1863 90.3469 63.7572 90.7873 64.3932L92.4317 63.2548C92.008 62.6428 91.6607 62.1097 91.387 61.6535L89.672 62.6825ZM91.7687 64.8112C93.3583 64.5549 94.8523 64.0663 96.2458 63.3438L95.3252 61.5682C94.1266 62.1897 92.8367 62.6131 91.4502 62.8368L91.7687 64.8112ZM96.2327 63.3504C97.7435 62.595 98.9602 61.4844 99.8717 60.0368L98.1792 58.9712C97.4587 60.1156 96.5154 60.973 95.3383 61.5616L96.2327 63.3504ZM99.8666 60.0448C100.863 58.4952 101.321 56.5633 101.321 54.32H99.3215C99.3215 56.3007 98.9162 57.8248 98.1843 58.9632L99.8666 60.0448ZM101.321 54.32C101.321 51.4157 100.431 49.018 98.5588 47.2558L97.1881 48.7122C98.5798 50.022 99.3215 51.8483 99.3215 54.32H101.321ZM98.5588 47.2558C96.699 45.5054 94.2235 44.68 91.2495 44.68V46.68C93.8434 46.68 95.7839 47.3906 97.1881 48.7122L98.5588 47.2558ZM91.2495 44.68C89.56 44.68 87.7754 44.7041 85.8958 44.7523L85.9471 46.7517C87.8115 46.7039 89.5789 46.68 91.2495 46.68V44.68ZM85.8952 44.7523C84.053 44.8008 82.2812 44.8978 80.5801 45.0437L80.7509 47.0363C82.4097 46.8942 84.1419 46.7992 85.9478 46.7517L85.8952 44.7523ZM79.6655 46.0385L79.5935 94.9985L81.5935 95.0015L81.6655 46.0415L79.6655 46.0385ZM80.4884 94.0055L71.6324 94.9415L71.8426 96.9305L80.6986 95.9945L80.4884 94.0055ZM72.7372 95.9111L71.5132 46.8071L69.5138 46.8569L70.7378 95.9609L72.7372 95.9111ZM70.372 45.842L66.844 46.346L67.1269 48.3259L70.6549 47.8219L70.372 45.842ZM67.9606 47.1144L66.5206 40.7784L64.5703 41.2216L66.0103 47.5576L67.9606 47.1144ZM65.755 41.9778C67.0631 41.6975 68.7865 41.4135 70.9336 41.1272L70.6693 39.1448C68.4965 39.4345 66.7158 39.7265 65.3359 40.0222L65.755 41.9778ZM70.9552 41.1241C73.0994 40.7906 75.4375 40.4803 77.97 40.1936L77.745 38.2063C75.1895 38.4956 72.8235 38.8094 70.6478 39.1479L70.9552 41.1241ZM77.9884 40.1914C80.5157 39.8576 82.9941 39.5955 85.4237 39.4049L85.2673 37.4111C82.8009 37.6045 80.2873 37.8704 77.7265 38.2086L77.9884 40.1914ZM85.4222 39.4051C87.8991 39.2145 90.1048 39.12 92.0415 39.12V37.12C90.0421 37.12 87.7838 37.2175 85.2688 37.4109L85.4222 39.4051ZM92.0415 39.12C97.4438 39.12 101.606 40.4684 104.641 43.0568L105.938 41.5352C102.445 38.5556 97.7751 37.12 92.0415 37.12V39.12ZM104.641 43.0568C107.633 45.6095 109.185 49.3105 109.185 54.32H111.185C111.185 48.8655 109.474 44.5505 105.938 41.5352L104.641 43.0568ZM109.185 54.32C109.185 57.2774 108.482 59.6811 107.136 61.592L108.771 62.744C110.401 60.4309 111.185 57.6026 111.185 54.32H109.185ZM107.136 61.592C105.747 63.5636 103.932 65.1125 101.674 66.2416L102.569 68.0304C105.111 66.7595 107.184 64.9964 108.771 62.7439L107.136 61.592ZM101.682 66.2379C99.4376 67.337 97.0309 68.0257 94.4549 68.3017L94.668 70.2903C97.4681 69.9903 100.101 69.239 102.561 68.0341L101.682 66.2379ZM93.7224 69.84C98.2974 76.8972 104.916 84.2835 113.551 92.0016L114.884 90.5104C106.334 82.8685 99.8496 75.6148 95.4006 68.752L93.7224 69.84ZM113.547 90.5137L108.363 95.1937L109.704 96.6783L114.888 91.9983L113.547 90.5137Z" fill="#CF0FFF"/>
</svg>
